<svg xmlns="http://www.w3.org/2000/svg" width="48" height="32" viewBox="0 0 48 32"><g transform="translate(-397 -1515)"><g transform="translate(397 1515)" fill="#1b182c" stroke="#1b182c" stroke-width="2"><rect width="48" height="32" stroke="none"/><rect x="1" y="1" width="46" height="30" fill="none"/></g><g transform="translate(401 1518)" fill="none" stroke="#fff" stroke-width="1"><rect width="40" height="26" stroke="none"/><rect x="0.5" y="0.5" width="39" height="25" fill="none"/></g><path d="M19.637,21.571c.013-.014.019-.033.032-.048L29.022,12.3a1.324,1.324,0,0,0,0-1.88.057.057,0,0,0-.016-.01A1.317,1.317,0,0,0,28.052,10H9.344a1.331,1.331,0,0,0-.967.421l-.005,0a1.323,1.323,0,0,0,0,1.88l9.374,9.274a1.343,1.343,0,0,0,1.891,0Z" transform="translate(402.303 1515.02)" fill="#fff"/></g></svg>