<?xml version="1.0" encoding="utf-8"?>
<svg version="1.1" id="Layer_1" xmlns="http://www.w3.org/2000/svg" xmlns:xlink="http://www.w3.org/1999/xlink" x="0px" y="0px" viewBox="0 0 960 864" width="960" height="864" style="enable-background:new 0 0 960 960;" xml:space="preserve">
<style type="text/css">
	.st0{fill:#ffffff;}
	.st1{fill:#000000;}
	.st2{fill:#ffffff;}
</style>
<title>Designed by Shapes4FREE.com</title>
<g>
	<path class="st0" d="M960,80V16c-8.84,0-16-7.16-16-16h-64c0,8.84-7.16,16-16,16s-16-7.16-16-16h-64c0,8.84-7.16,16-16,16   s-16-7.16-16-16h-64c0,8.84-7.16,16-16,16s-16-7.16-16-16h-64c0,8.84-7.16,16-16,16s-16-7.16-16-16h-64c0,8.84-7.16,16-16,16   s-16-7.16-16-16h-64c0,8.84-7.16,16-16,16s-16-7.16-16-16h-64c0,8.84-7.16,16-16,16s-16-7.16-16-16h-64c0,8.84-7.16,16-16,16   s-16-7.16-16-16h-64c0,8.84-7.16,16-16,16S80,8.84,80,0H16c0,8.84-7.16,16-16,16v64c8.84,0,16,7.16,16,16s-7.16,16-16,16v64   c8.84,0,16,7.16,16,16s-7.16,16-16,16v64c8.84,0,16,7.16,16,16s-7.16,16-16,16v64c8.84,0,16,7.16,16,16s-7.16,16-16,16v64   c8.84,0,16,7.16,16,16s-7.16,16-16,16v64c8.84,0,16,7.16,16,16s-7.16,16-16,16v64c8.84,0,16,7.16,16,16s-7.16,16-16,16v64   c8.84,0,16,7.16,16,16s-7.16,16-16,16v64c8.84,0,16,7.16,16,16s-7.16,16-16,16v64c8.84,0,16,7.16,16,16h64c0-8.84,7.16-16,16-16   s16,7.16,16,16h64c0-8.84,7.16-16,16-16s16,7.16,16,16h64c0-8.84,7.16-16,16-16s16,7.16,16,16h64c0-8.84,7.16-16,16-16   s16,7.16,16,16h64c0-8.84,7.16-16,16-16s16,7.16,16,16h64c0-8.84,7.16-16,16-16s16,7.16,16,16h64c0-8.84,7.16-16,16-16   s16,7.16,16,16h64c0-8.84,7.16-16,16-16s16,7.16,16,16h64c0-8.84,7.16-16,16-16s16,7.16,16,16h64c0-8.84,7.16-16,16-16v-64   c-8.84,0-16-7.16-16-16s7.16-16,16-16v-64c-8.84,0-16-7.16-16-16s7.16-16,16-16v-64c-8.84,0-16-7.16-16-16s7.16-16,16-16v-64   c-8.84,0-16-7.16-16-16s7.16-16,16-16v-64c-8.84,0-16-7.16-16-16s7.16-16,16-16v-64c-8.84,0-16-7.16-16-16s7.16-16,16-16v-64   c-8.84,0-16-7.16-16-16s7.16-16,16-16v-64c-8.84,0-16-7.16-16-16s7.16-16,16-16v-64c-8.84,0-16-7.16-16-16S951.16,80,960,80z    M912,32c8.84,0,16,7.16,16,16s-7.16,16-16,16s-16-7.16-16-16S903.16,32,912,32z M816,32c8.84,0,16,7.16,16,16s-7.16,16-16,16   s-16-7.16-16-16S807.16,32,816,32z M816,832c-8.84,0-16-7.16-16-16s7.16-16,16-16s16,7.16,16,16S824.84,832,816,832z M720,832   c-8.84,0-16-7.16-16-16s7.16-16,16-16s16,7.16,16,16S728.84,832,720,832z M624,832c-8.84,0-16-7.16-16-16s7.16-16,16-16   s16,7.16,16,16S632.84,832,624,832z M528,832c-8.84,0-16-7.16-16-16s7.16-16,16-16s16,7.16,16,16S536.84,832,528,832z M432,832   c-8.84,0-16-7.16-16-16s7.16-16,16-16s16,7.16,16,16S440.84,832,432,832z M336,832c-8.84,0-16-7.16-16-16s7.16-16,16-16   s16,7.16,16,16S344.84,832,336,832z M240,832c-8.84,0-16-7.16-16-16s7.16-16,16-16s16,7.16,16,16S248.84,832,240,832z M144,832   c-8.84,0-16-7.16-16-16s7.16-16,16-16s16,7.16,16,16S152.84,832,144,832z M144,128c8.84,0,16,7.16,16,16s-7.16,16-16,16   s-16-7.16-16-16S135.16,128,144,128z M240,128c8.84,0,16,7.16,16,16s-7.16,16-16,16s-16-7.16-16-16S231.16,128,240,128z M336,128   c8.84,0,16,7.16,16,16s-7.16,16-16,16s-16-7.16-16-16S327.16,128,336,128z M432,128c8.84,0,16,7.16,16,16s-7.16,16-16,16   s-16-7.16-16-16S423.16,128,432,128z M528,128c8.84,0,16,7.16,16,16s-7.16,16-16,16s-16-7.16-16-16S519.16,128,528,128z M624,128   c8.84,0,16,7.16,16,16s-7.16,16-16,16s-16-7.16-16-16S615.16,128,624,128z M720,128c8.84,0,16,7.16,16,16s-7.16,16-16,16   s-16-7.16-16-16S711.16,128,720,128z M736,720c0,8.84-7.16,16-16,16s-16-7.16-16-16s7.16-16,16-16S736,711.16,736,720z M640,720   c0,8.84-7.16,16-16,16s-16-7.16-16-16s7.16-16,16-16S640,711.16,640,720z M544,720c0,8.84-7.16,16-16,16s-16-7.16-16-16   s7.16-16,16-16S544,711.16,544,720z M448,720c0,8.84-7.16,16-16,16s-16-7.16-16-16s7.16-16,16-16S448,711.16,448,720z M352,720   c0,8.84-7.16,16-16,16s-16-7.16-16-16s7.16-16,16-16S352,711.16,352,720z M256,720c0,8.84-7.16,16-16,16s-16-7.16-16-16   s7.16-16,16-16S256,711.16,256,720z M224,240c0-8.84,7.16-16,16-16s16,7.16,16,16s-7.16,16-16,16S224,248.84,224,240z M320,240   c0-8.84,7.16-16,16-16s16,7.16,16,16s-7.16,16-16,16S320,248.84,320,240z M416,240c0-8.84,7.16-16,16-16s16,7.16,16,16   s-7.16,16-16,16S416,248.84,416,240z M512,240c0-8.84,7.16-16,16-16s16,7.16,16,16s-7.16,16-16,16S512,248.84,512,240z M608,240   c0-8.84,7.16-16,16-16s16,7.16,16,16s-7.16,16-16,16S608,248.84,608,240z M640,624c0,8.84-7.16,16-16,16s-16-7.16-16-16   s7.16-16,16-16S640,615.16,640,624z M544,624c0,8.84-7.16,16-16,16s-16-7.16-16-16s7.16-16,16-16S544,615.16,544,624z M448,624   c0,8.84-7.16,16-16,16s-16-7.16-16-16s7.16-16,16-16S448,615.16,448,624z M352,624c0,8.84-7.16,16-16,16s-16-7.16-16-16   s7.16-16,16-16S352,615.16,352,624z M320,336c0-8.84,7.16-16,16-16s16,7.16,16,16s-7.16,16-16,16S320,344.84,320,336z M416,336   c0-8.84,7.16-16,16-16s16,7.16,16,16s-7.16,16-16,16S416,344.84,416,336z M512,336c0-8.84,7.16-16,16-16s16,7.16,16,16   s-7.16,16-16,16S512,344.84,512,336z M544,528c0,8.84-7.16,16-16,16s-16-7.16-16-16s7.16-16,16-16S544,519.16,544,528z M448,528   c0,8.84-7.16,16-16,16s-16-7.16-16-16s7.16-16,16-16S448,519.16,448,528z M416,432c0-8.84,7.16-16,16-16s16,7.16,16,16   s-7.16,16-16,16S416,440.84,416,432z M528,448c-8.84,0-16-7.16-16-16s7.16-16,16-16s16,7.16,16,16S536.84,448,528,448z M480,400   c-8.84,0-16-7.16-16-16s7.16-16,16-16s16,7.16,16,16S488.84,400,480,400z M496,480c0,8.84-7.16,16-16,16s-16-7.16-16-16   s7.16-16,16-16S496,471.16,496,480z M336,416c8.84,0,16,7.16,16,16s-7.16,16-16,16s-16-7.16-16-16S327.16,416,336,416z M384,464   c8.84,0,16,7.16,16,16s-7.16,16-16,16s-16-7.16-16-16S375.16,464,384,464z M368,384c0-8.84,7.16-16,16-16s16,7.16,16,16   s-7.16,16-16,16S368,392.84,368,384z M336,512c8.84,0,16,7.16,16,16s-7.16,16-16,16s-16-7.16-16-16S327.16,512,336,512z M384,560   c8.84,0,16,7.16,16,16s-7.16,16-16,16s-16-7.16-16-16S375.16,560,384,560z M480,560c8.84,0,16,7.16,16,16s-7.16,16-16,16   s-16-7.16-16-16S471.16,560,480,560z M624,544c-8.84,0-16-7.16-16-16s7.16-16,16-16s16,7.16,16,16S632.84,544,624,544z M576,496   c-8.84,0-16-7.16-16-16s7.16-16,16-16s16,7.16,16,16S584.84,496,576,496z M592,576c0,8.84-7.16,16-16,16s-16-7.16-16-16   s7.16-16,16-16S592,567.16,592,576z M624,448c-8.84,0-16-7.16-16-16s7.16-16,16-16s16,7.16,16,16S632.84,448,624,448z M576,400   c-8.84,0-16-7.16-16-16s7.16-16,16-16s16,7.16,16,16S584.84,400,576,400z M624,352c-8.84,0-16-7.16-16-16s7.16-16,16-16   s16,7.16,16,16S632.84,352,624,352z M576,304c-8.84,0-16-7.16-16-16s7.16-16,16-16s16,7.16,16,16S584.84,304,576,304z M480,304   c-8.84,0-16-7.16-16-16s7.16-16,16-16s16,7.16,16,16S488.84,304,480,304z M384,304c-8.84,0-16-7.16-16-16s7.16-16,16-16   s16,7.16,16,16S392.84,304,384,304z M240,320c8.84,0,16,7.16,16,16s-7.16,16-16,16s-16-7.16-16-16S231.16,320,240,320z M288,368   c8.84,0,16,7.16,16,16s-7.16,16-16,16s-16-7.16-16-16S279.16,368,288,368z M272,288c0-8.84,7.16-16,16-16s16,7.16,16,16   s-7.16,16-16,16S272,296.84,272,288z M240,416c8.84,0,16,7.16,16,16s-7.16,16-16,16s-16-7.16-16-16S231.16,416,240,416z M288,464   c8.84,0,16,7.16,16,16s-7.16,16-16,16s-16-7.16-16-16S279.16,464,288,464z M240,512c8.84,0,16,7.16,16,16s-7.16,16-16,16   s-16-7.16-16-16S231.16,512,240,512z M288,560c8.84,0,16,7.16,16,16s-7.16,16-16,16s-16-7.16-16-16S279.16,560,288,560z M240,608   c8.84,0,16,7.16,16,16s-7.16,16-16,16s-16-7.16-16-16S231.16,608,240,608z M288,656c8.84,0,16,7.16,16,16s-7.16,16-16,16   s-16-7.16-16-16S279.16,656,288,656z M384,656c8.84,0,16,7.16,16,16s-7.16,16-16,16s-16-7.16-16-16S375.16,656,384,656z M480,656   c8.84,0,16,7.16,16,16s-7.16,16-16,16s-16-7.16-16-16S471.16,656,480,656z M576,656c8.84,0,16,7.16,16,16s-7.16,16-16,16   s-16-7.16-16-16S567.16,656,576,656z M720,640c-8.84,0-16-7.16-16-16s7.16-16,16-16s16,7.16,16,16S728.84,640,720,640z M672,592   c-8.84,0-16-7.16-16-16s7.16-16,16-16s16,7.16,16,16S680.84,592,672,592z M688,672c0,8.84-7.16,16-16,16s-16-7.16-16-16   s7.16-16,16-16S688,663.16,688,672z M720,544c-8.84,0-16-7.16-16-16s7.16-16,16-16s16,7.16,16,16S728.84,544,720,544z M672,496   c-8.84,0-16-7.16-16-16s7.16-16,16-16s16,7.16,16,16S680.84,496,672,496z M720,448c-8.84,0-16-7.16-16-16s7.16-16,16-16   s16,7.16,16,16S728.84,448,720,448z M672,400c-8.84,0-16-7.16-16-16s7.16-16,16-16s16,7.16,16,16S680.84,400,672,400z M720,352   c-8.84,0-16-7.16-16-16s7.16-16,16-16s16,7.16,16,16S728.84,352,720,352z M672,304c-8.84,0-16-7.16-16-16s7.16-16,16-16   s16,7.16,16,16S680.84,304,672,304z M720,256c-8.84,0-16-7.16-16-16s7.16-16,16-16s16,7.16,16,16S728.84,256,720,256z M672,208   c-8.84,0-16-7.16-16-16s7.16-16,16-16s16,7.16,16,16S680.84,208,672,208z M576,208c-8.84,0-16-7.16-16-16s7.16-16,16-16   s16,7.16,16,16S584.84,208,576,208z M480,208c-8.84,0-16-7.16-16-16s7.16-16,16-16s16,7.16,16,16S488.84,208,480,208z M384,208   c-8.84,0-16-7.16-16-16s7.16-16,16-16s16,7.16,16,16S392.84,208,384,208z M288,208c-8.84,0-16-7.16-16-16s7.16-16,16-16   s16,7.16,16,16S296.84,208,288,208z M144,224c8.84,0,16,7.16,16,16s-7.16,16-16,16s-16-7.16-16-16S135.16,224,144,224z M192,272   c8.84,0,16,7.16,16,16s-7.16,16-16,16s-16-7.16-16-16S183.16,272,192,272z M176,192c0-8.84,7.16-16,16-16s16,7.16,16,16   s-7.16,16-16,16S176,200.84,176,192z M144,320c8.84,0,16,7.16,16,16s-7.16,16-16,16s-16-7.16-16-16S135.16,320,144,320z M192,368   c8.84,0,16,7.16,16,16s-7.16,16-16,16s-16-7.16-16-16S183.16,368,192,368z M144,416c8.84,0,16,7.16,16,16s-7.16,16-16,16   s-16-7.16-16-16S135.16,416,144,416z M192,464c8.84,0,16,7.16,16,16s-7.16,16-16,16s-16-7.16-16-16S183.16,464,192,464z M144,512   c8.84,0,16,7.16,16,16s-7.16,16-16,16s-16-7.16-16-16S135.16,512,144,512z M192,560c8.84,0,16,7.16,16,16s-7.16,16-16,16   s-16-7.16-16-16S183.16,560,192,560z M144,608c8.84,0,16,7.16,16,16s-7.16,16-16,16s-16-7.16-16-16S135.16,608,144,608z M192,656   c8.84,0,16,7.16,16,16s-7.16,16-16,16s-16-7.16-16-16S183.16,656,192,656z M144,704c8.84,0,16,7.16,16,16s-7.16,16-16,16   s-16-7.16-16-16S135.16,704,144,704z M192,752c8.84,0,16,7.16,16,16s-7.16,16-16,16s-16-7.16-16-16S183.16,752,192,752z M288,752   c8.84,0,16,7.16,16,16s-7.16,16-16,16s-16-7.16-16-16S279.16,752,288,752z M384,752c8.84,0,16,7.16,16,16s-7.16,16-16,16   s-16-7.16-16-16S375.16,752,384,752z M480,752c8.84,0,16,7.16,16,16s-7.16,16-16,16s-16-7.16-16-16S471.16,752,480,752z M576,752   c8.84,0,16,7.16,16,16s-7.16,16-16,16s-16-7.16-16-16S567.16,752,576,752z M672,752c8.84,0,16,7.16,16,16s-7.16,16-16,16   s-16-7.16-16-16S663.16,752,672,752z M816,736c-8.84,0-16-7.16-16-16s7.16-16,16-16s16,7.16,16,16S824.84,736,816,736z M768,688   c-8.84,0-16-7.16-16-16s7.16-16,16-16s16,7.16,16,16S776.84,688,768,688z M784,768c0,8.84-7.16,16-16,16s-16-7.16-16-16   s7.16-16,16-16S784,759.16,784,768z M816,640c-8.84,0-16-7.16-16-16s7.16-16,16-16s16,7.16,16,16S824.84,640,816,640z M768,592   c-8.84,0-16-7.16-16-16s7.16-16,16-16s16,7.16,16,16S776.84,592,768,592z M816,544c-8.84,0-16-7.16-16-16s7.16-16,16-16   s16,7.16,16,16S824.84,544,816,544z M768,496c-8.84,0-16-7.16-16-16s7.16-16,16-16s16,7.16,16,16S776.84,496,768,496z M816,448   c-8.84,0-16-7.16-16-16s7.16-16,16-16s16,7.16,16,16S824.84,448,816,448z M768,400c-8.84,0-16-7.16-16-16s7.16-16,16-16   s16,7.16,16,16S776.84,400,768,400z M816,352c-8.84,0-16-7.16-16-16s7.16-16,16-16s16,7.16,16,16S824.84,352,816,352z M768,304   c-8.84,0-16-7.16-16-16s7.16-16,16-16s16,7.16,16,16S776.84,304,768,304z M816,256c-8.84,0-16-7.16-16-16s7.16-16,16-16   s16,7.16,16,16S824.84,256,816,256z M768,208c-8.84,0-16-7.16-16-16s7.16-16,16-16s16,7.16,16,16S776.84,208,768,208z M816,160   c-8.84,0-16-7.16-16-16s7.16-16,16-16s16,7.16,16,16S824.84,160,816,160z M768,80c8.84,0,16,7.16,16,16s-7.16,16-16,16   s-16-7.16-16-16S759.16,80,768,80z M720,32c8.84,0,16,7.16,16,16s-7.16,16-16,16s-16-7.16-16-16S711.16,32,720,32z M672,80   c8.84,0,16,7.16,16,16s-7.16,16-16,16s-16-7.16-16-16S663.16,80,672,80z M624,32c8.84,0,16,7.16,16,16s-7.16,16-16,16   s-16-7.16-16-16S615.16,32,624,32z M576,80c8.84,0,16,7.16,16,16s-7.16,16-16,16s-16-7.16-16-16S567.16,80,576,80z M528,32   c8.84,0,16,7.16,16,16s-7.16,16-16,16s-16-7.16-16-16S519.16,32,528,32z M480,80c8.84,0,16,7.16,16,16s-7.16,16-16,16   s-16-7.16-16-16S471.16,80,480,80z M432,32c8.84,0,16,7.16,16,16s-7.16,16-16,16s-16-7.16-16-16S423.16,32,432,32z M384,80   c8.84,0,16,7.16,16,16s-7.16,16-16,16s-16-7.16-16-16S375.16,80,384,80z M336,32c8.84,0,16,7.16,16,16s-7.16,16-16,16   s-16-7.16-16-16S327.16,32,336,32z M288,80c8.84,0,16,7.16,16,16s-7.16,16-16,16s-16-7.16-16-16S279.16,80,288,80z M240,32   c8.84,0,16,7.16,16,16s-7.16,16-16,16s-16-7.16-16-16S231.16,32,240,32z M192,80c8.84,0,16,7.16,16,16s-7.16,16-16,16   s-16-7.16-16-16S183.16,80,192,80z M144,32c8.84,0,16,7.16,16,16s-7.16,16-16,16s-16-7.16-16-16S135.16,32,144,32z M48,32   c8.84,0,16,7.16,16,16s-7.16,16-16,16s-16-7.16-16-16S39.16,32,48,32z M96,80c8.84,0,16,7.16,16,16s-7.16,16-16,16s-16-7.16-16-16   S87.16,80,96,80z M64,144c0,8.84-7.16,16-16,16s-16-7.16-16-16s7.16-16,16-16S64,135.16,64,144z M96,176c8.84,0,16,7.16,16,16   s-7.16,16-16,16s-16-7.16-16-16S87.16,176,96,176z M64,240c0,8.84-7.16,16-16,16s-16-7.16-16-16s7.16-16,16-16S64,231.16,64,240z    M96,272c8.84,0,16,7.16,16,16s-7.16,16-16,16s-16-7.16-16-16S87.16,272,96,272z M64,336c0,8.84-7.16,16-16,16s-16-7.16-16-16   s7.16-16,16-16S64,327.16,64,336z M96,368c8.84,0,16,7.16,16,16s-7.16,16-16,16s-16-7.16-16-16S87.16,368,96,368z M64,432   c0,8.84-7.16,16-16,16s-16-7.16-16-16s7.16-16,16-16S64,423.16,64,432z M96,464c8.84,0,16,7.16,16,16s-7.16,16-16,16   s-16-7.16-16-16S87.16,464,96,464z M64,528c0,8.84-7.16,16-16,16s-16-7.16-16-16s7.16-16,16-16S64,519.16,64,528z M96,560   c8.84,0,16,7.16,16,16s-7.16,16-16,16s-16-7.16-16-16S87.16,560,96,560z M64,624c0,8.84-7.16,16-16,16s-16-7.16-16-16   s7.16-16,16-16S64,615.16,64,624z M96,656c8.84,0,16,7.16,16,16s-7.16,16-16,16s-16-7.16-16-16S87.16,656,96,656z M64,720   c0,8.84-7.16,16-16,16s-16-7.16-16-16s7.16-16,16-16S64,711.16,64,720z M96,752c8.84,0,16,7.16,16,16s-7.16,16-16,16   s-16-7.16-16-16S87.16,752,96,752z M64,816c0,8.84-7.16,16-16,16s-16-7.16-16-16s7.16-16,16-16S64,807.16,64,816z M48,928   c-8.84,0-16-7.16-16-16s7.16-16,16-16s16,7.16,16,16S56.84,928,48,928z M96,880c-8.84,0-16-7.16-16-16s7.16-16,16-16s16,7.16,16,16   S104.84,880,96,880z M144,928c-8.84,0-16-7.16-16-16s7.16-16,16-16s16,7.16,16,16S152.84,928,144,928z M192,880   c-8.84,0-16-7.16-16-16s7.16-16,16-16s16,7.16,16,16S200.84,880,192,880z M240,928c-8.84,0-16-7.16-16-16s7.16-16,16-16   s16,7.16,16,16S248.84,928,240,928z M288,880c-8.84,0-16-7.16-16-16s7.16-16,16-16s16,7.16,16,16S296.84,880,288,880z M336,928   c-8.84,0-16-7.16-16-16s7.16-16,16-16s16,7.16,16,16S344.84,928,336,928z M384,880c-8.84,0-16-7.16-16-16s7.16-16,16-16   s16,7.16,16,16S392.84,880,384,880z M432,928c-8.84,0-16-7.16-16-16s7.16-16,16-16s16,7.16,16,16S440.84,928,432,928z M480,880   c-8.84,0-16-7.16-16-16s7.16-16,16-16s16,7.16,16,16S488.84,880,480,880z M528,928c-8.84,0-16-7.16-16-16s7.16-16,16-16   s16,7.16,16,16S536.84,928,528,928z M576,880c-8.84,0-16-7.16-16-16s7.16-16,16-16s16,7.16,16,16S584.84,880,576,880z M624,928   c-8.84,0-16-7.16-16-16s7.16-16,16-16s16,7.16,16,16S632.84,928,624,928z M672,880c-8.84,0-16-7.16-16-16s7.16-16,16-16   s16,7.16,16,16S680.84,880,672,880z M720,928c-8.84,0-16-7.16-16-16s7.16-16,16-16s16,7.16,16,16S728.84,928,720,928z M768,880   c-8.84,0-16-7.16-16-16s7.16-16,16-16s16,7.16,16,16S776.84,880,768,880z M816,928c-8.84,0-16-7.16-16-16s7.16-16,16-16   s16,7.16,16,16S824.84,928,816,928z M912,928c-8.84,0-16-7.16-16-16s7.16-16,16-16s16,7.16,16,16S920.84,928,912,928z M864,880   c-8.84,0-16-7.16-16-16s7.16-16,16-16s16,7.16,16,16S872.84,880,864,880z M896,816c0-8.84,7.16-16,16-16s16,7.16,16,16   s-7.16,16-16,16S896,824.84,896,816z M864,784c-8.84,0-16-7.16-16-16s7.16-16,16-16s16,7.16,16,16S872.84,784,864,784z M896,720   c0-8.84,7.16-16,16-16s16,7.16,16,16s-7.16,16-16,16S896,728.84,896,720z M864,688c-8.84,0-16-7.16-16-16s7.16-16,16-16   s16,7.16,16,16S872.84,688,864,688z M896,624c0-8.84,7.16-16,16-16s16,7.16,16,16s-7.16,16-16,16S896,632.84,896,624z M864,592   c-8.84,0-16-7.16-16-16s7.16-16,16-16s16,7.16,16,16S872.84,592,864,592z M896,528c0-8.84,7.16-16,16-16s16,7.16,16,16   s-7.16,16-16,16S896,536.84,896,528z M864,496c-8.84,0-16-7.16-16-16s7.16-16,16-16s16,7.16,16,16S872.84,496,864,496z M896,432   c0-8.84,7.16-16,16-16s16,7.16,16,16s-7.16,16-16,16S896,440.84,896,432z M864,400c-8.84,0-16-7.16-16-16s7.16-16,16-16   s16,7.16,16,16S872.84,400,864,400z M896,336c0-8.84,7.16-16,16-16s16,7.16,16,16s-7.16,16-16,16S896,344.84,896,336z M864,304   c-8.84,0-16-7.16-16-16s7.16-16,16-16s16,7.16,16,16S872.84,304,864,304z M896,240c0-8.84,7.16-16,16-16s16,7.16,16,16   s-7.16,16-16,16S896,248.84,896,240z M864,208c-8.84,0-16-7.16-16-16s7.16-16,16-16s16,7.16,16,16S872.84,208,864,208z M896,144   c0-8.84,7.16-16,16-16s16,7.16,16,16s-7.16,16-16,16S896,152.84,896,144z M864,112c-8.84,0-16-7.16-16-16s7.16-16,16-16   s16,7.16,16,16S872.84,112,864,112z" />
	<g>
		<path class="st1" d="M0,16c8.84,0,16-7.16,16-16H0V16z" />
		<path class="st1" d="M80,0c0,8.84,7.16,16,16,16s16-7.16,16-16H96H80z" />
		<circle class="st1" cx="48" cy="48" r="16" />
		<path class="st1" d="M0,80v16v16c8.84,0,16-7.16,16-16S8.84,80,0,80z" />
		<path class="st1" d="M176,0c0,8.84,7.16,16,16,16s16-7.16,16-16h-16H176z" />
		<circle class="st1" cx="144" cy="48" r="16" />
		<circle class="st1" cx="96" cy="96" r="16" />
		<path class="st1" d="M272,0c0,8.84,7.16,16,16,16s16-7.16,16-16h-16H272z" />
		<circle class="st1" cx="240" cy="48" r="16" />
		<circle class="st1" cx="192" cy="96" r="16" />
		<path class="st1" d="M368,0c0,8.84,7.16,16,16,16s16-7.16,16-16h-16H368z" />
		<circle class="st1" cx="336" cy="48" r="16" />
		<circle class="st1" cx="288" cy="96" r="16" />
		<path class="st1" d="M464,0c0,8.84,7.16,16,16,16s16-7.16,16-16h-16H464z" />
		<circle class="st1" cx="432" cy="48" r="16" />
		<circle class="st1" cx="384" cy="96" r="16" />
		<path class="st1" d="M560,0c0,8.84,7.16,16,16,16s16-7.16,16-16h-16H560z" />
		<circle class="st1" cx="528" cy="48" r="16" />
		<circle class="st1" cx="480" cy="96" r="16" />
		<path class="st1" d="M656,0c0,8.84,7.16,16,16,16s16-7.16,16-16h-16H656z" />
		<circle class="st1" cx="624" cy="48" r="16" />
		<circle class="st1" cx="576" cy="96" r="16" />
		<path class="st1" d="M752,0c0,8.84,7.16,16,16,16s16-7.16,16-16h-16H752z" />
		<circle class="st1" cx="720" cy="48" r="16" />
		<circle class="st1" cx="672" cy="96" r="16" />
		<path class="st1" d="M848,0c0,8.84,7.16,16,16,16s16-7.16,16-16h-16H848z" />
		<circle class="st1" cx="816" cy="48" r="16" />
		<circle class="st1" cx="768" cy="96" r="16" />
		<path class="st1" d="M944,0c0,8.84,7.16,16,16,16V0H944z" />
		<circle class="st1" cx="912" cy="48" r="16" />
		<circle class="st1" cx="864" cy="96" r="16" />
		<path class="st1" d="M944,96c0,8.84,7.16,16,16,16V96V80C951.16,80,944,87.16,944,96z" />
		<circle class="st1" cx="48" cy="144" r="16" />
		<path class="st1" d="M0,176v16v16c8.84,0,16-7.16,16-16S8.84,176,0,176z" />
		<circle class="st1" cx="144" cy="144" r="16" />
		<circle class="st1" cx="96" cy="192" r="16" />
		<circle class="st1" cx="240" cy="144" r="16" />
		<circle class="st1" cx="192" cy="192" r="16" />
		<circle class="st1" cx="336" cy="144" r="16" />
		<circle class="st1" cx="288" cy="192" r="16" />
		<circle class="st1" cx="432" cy="144" r="16" />
		<circle class="st1" cx="384" cy="192" r="16" />
		<circle class="st1" cx="528" cy="144" r="16" />
		<circle class="st1" cx="480" cy="192" r="16" />
		<circle class="st1" cx="624" cy="144" r="16" />
		<circle class="st1" cx="576" cy="192" r="16" />
		<circle class="st1" cx="720" cy="144" r="16" />
		<circle class="st1" cx="672" cy="192" r="16" />
		<circle class="st1" cx="816" cy="144" r="16" />
		<circle class="st1" cx="768" cy="192" r="16" />
		<circle class="st1" cx="912" cy="144" r="16" />
		<circle class="st1" cx="864" cy="192" r="16" />
		<path class="st1" d="M944,192c0,8.84,7.16,16,16,16v-16v-16C951.16,176,944,183.16,944,192z" />
		<circle class="st1" cx="48" cy="240" r="16" />
		<path class="st1" d="M0,272v16v16c8.84,0,16-7.16,16-16S8.84,272,0,272z" />
		<circle class="st1" cx="144" cy="240" r="16" />
		<circle class="st1" cx="96" cy="288" r="16" />
		<circle class="st1" cx="240" cy="240" r="16" />
		<circle class="st1" cx="192" cy="288" r="16" />
		<circle class="st1" cx="336" cy="240" r="16" />
		<circle class="st1" cx="288" cy="288" r="16" />
		<circle class="st1" cx="432" cy="240" r="16" />
		<circle class="st1" cx="384" cy="288" r="16" />
		<circle class="st1" cx="528" cy="240" r="16" />
		<circle class="st1" cx="480" cy="288" r="16" />
		<circle class="st1" cx="624" cy="240" r="16" />
		<circle class="st1" cx="576" cy="288" r="16" />
		<circle class="st1" cx="720" cy="240" r="16" />
		<circle class="st1" cx="672" cy="288" r="16" />
		<circle class="st1" cx="816" cy="240" r="16" />
		<circle class="st1" cx="768" cy="288" r="16" />
		<circle class="st1" cx="912" cy="240" r="16" />
		<circle class="st1" cx="864" cy="288" r="16" />
		<path class="st1" d="M944,288c0,8.84,7.16,16,16,16v-16v-16C951.16,272,944,279.16,944,288z" />
		<circle class="st1" cx="48" cy="336" r="16" />
		<path class="st1" d="M0,368v16v16c8.84,0,16-7.16,16-16S8.84,368,0,368z" />
		<circle class="st1" cx="144" cy="336" r="16" />
		<circle class="st1" cx="96" cy="384" r="16" />
		<circle class="st1" cx="240" cy="336" r="16" />
		<circle class="st1" cx="192" cy="384" r="16" />
		<circle class="st1" cx="336" cy="336" r="16" />
		<circle class="st1" cx="288" cy="384" r="16" />
		<circle class="st1" cx="432" cy="336" r="16" />
		<circle class="st1" cx="384" cy="384" r="16" />
		<circle class="st1" cx="528" cy="336" r="16" />
		<circle class="st1" cx="480" cy="384" r="16" />
		<circle class="st1" cx="624" cy="336" r="16" />
		<circle class="st1" cx="576" cy="384" r="16" />
		<circle class="st1" cx="720" cy="336" r="16" />
		<circle class="st1" cx="672" cy="384" r="16" />
		<circle class="st1" cx="816" cy="336" r="16" />
		<circle class="st1" cx="768" cy="384" r="16" />
		<circle class="st1" cx="912" cy="336" r="16" />
		<circle class="st1" cx="864" cy="384" r="16" />
		<path class="st1" d="M944,384c0,8.84,7.16,16,16,16v-16v-16C951.16,368,944,375.16,944,384z" />
		<circle class="st1" cx="48" cy="432" r="16" />
		<path class="st1" d="M0,464v16v16c8.84,0,16-7.16,16-16S8.84,464,0,464z" />
		<circle class="st1" cx="144" cy="432" r="16" />
		<circle class="st1" cx="96" cy="480" r="16" />
		<circle class="st1" cx="240" cy="432" r="16" />
		<circle class="st1" cx="192" cy="480" r="16" />
		<circle class="st1" cx="336" cy="432" r="16" />
		<circle class="st1" cx="288" cy="480" r="16" />
		<circle class="st1" cx="432" cy="432" r="16" />
		<circle class="st1" cx="384" cy="480" r="16" />
		<circle class="st1" cx="528" cy="432" r="16" />
		<circle class="st1" cx="480" cy="480" r="16" />
		<circle class="st1" cx="624" cy="432" r="16" />
		<circle class="st1" cx="576" cy="480" r="16" />
		<circle class="st1" cx="720" cy="432" r="16" />
		<circle class="st1" cx="672" cy="480" r="16" />
		<circle class="st1" cx="816" cy="432" r="16" />
		<circle class="st1" cx="768" cy="480" r="16" />
		<circle class="st1" cx="912" cy="432" r="16" />
		<circle class="st1" cx="864" cy="480" r="16" />
		<path class="st1" d="M944,480c0,8.84,7.16,16,16,16v-16v-16C951.16,464,944,471.16,944,480z" />
		<circle class="st1" cx="48" cy="528" r="16" />
		<path class="st1" d="M0,560v16v16c8.84,0,16-7.16,16-16S8.84,560,0,560z" />
		<circle class="st1" cx="144" cy="528" r="16" />
		<circle class="st1" cx="96" cy="576" r="16" />
		<circle class="st1" cx="240" cy="528" r="16" />
		<circle class="st1" cx="192" cy="576" r="16" />
		<circle class="st1" cx="336" cy="528" r="16" />
		<circle class="st1" cx="288" cy="576" r="16" />
		<circle class="st1" cx="432" cy="528" r="16" />
		<circle class="st1" cx="384" cy="576" r="16" />
		<circle class="st1" cx="528" cy="528" r="16" />
		<circle class="st1" cx="480" cy="576" r="16" />
		<circle class="st1" cx="624" cy="528" r="16" />
		<circle class="st1" cx="576" cy="576" r="16" />
		<circle class="st1" cx="720" cy="528" r="16" />
		<circle class="st1" cx="672" cy="576" r="16" />
		<circle class="st1" cx="816" cy="528" r="16" />
		<circle class="st1" cx="768" cy="576" r="16" />
		<circle class="st1" cx="912" cy="528" r="16" />
		<circle class="st1" cx="864" cy="576" r="16" />
		<path class="st1" d="M944,576c0,8.84,7.16,16,16,16v-16v-16C951.16,560,944,567.16,944,576z" />
		<circle class="st1" cx="48" cy="624" r="16" />
		<path class="st1" d="M0,656v16v16c8.84,0,16-7.16,16-16S8.84,656,0,656z" />
		<circle class="st1" cx="144" cy="624" r="16" />
		<circle class="st1" cx="96" cy="672" r="16" />
		<circle class="st1" cx="240" cy="624" r="16" />
		<circle class="st1" cx="192" cy="672" r="16" />
		<circle class="st1" cx="336" cy="624" r="16" />
		<circle class="st1" cx="288" cy="672" r="16" />
		<circle class="st1" cx="432" cy="624" r="16" />
		<circle class="st1" cx="384" cy="672" r="16" />
		<circle class="st1" cx="528" cy="624" r="16" />
		<circle class="st1" cx="480" cy="672" r="16" />
		<circle class="st1" cx="624" cy="624" r="16" />
		<circle class="st1" cx="576" cy="672" r="16" />
		<circle class="st1" cx="720" cy="624" r="16" />
		<circle class="st1" cx="672" cy="672" r="16" />
		<circle class="st1" cx="816" cy="624" r="16" />
		<circle class="st1" cx="768" cy="672" r="16" />
		<circle class="st1" cx="912" cy="624" r="16" />
		<circle class="st1" cx="864" cy="672" r="16" />
		<path class="st1" d="M944,672c0,8.84,7.16,16,16,16v-16v-16C951.16,656,944,663.16,944,672z" />
		<circle class="st1" cx="48" cy="720" r="16" />
		<path class="st1" d="M0,752v16v16c8.84,0,16-7.16,16-16S8.84,752,0,752z" />
		<circle class="st1" cx="144" cy="720" r="16" />
		<circle class="st1" cx="96" cy="768" r="16" />
		<circle class="st1" cx="240" cy="720" r="16" />
		<circle class="st1" cx="192" cy="768" r="16" />
		<circle class="st1" cx="336" cy="720" r="16" />
		<circle class="st1" cx="288" cy="768" r="16" />
		<circle class="st1" cx="432" cy="720" r="16" />
		<circle class="st1" cx="384" cy="768" r="16" />
		<circle class="st1" cx="528" cy="720" r="16" />
		<circle class="st1" cx="480" cy="768" r="16" />
		<circle class="st1" cx="624" cy="720" r="16" />
		<circle class="st1" cx="576" cy="768" r="16" />
		<circle class="st1" cx="720" cy="720" r="16" />
		<circle class="st1" cx="672" cy="768" r="16" />
		<circle class="st1" cx="816" cy="720" r="16" />
		<circle class="st1" cx="768" cy="768" r="16" />
		<circle class="st1" cx="912" cy="720" r="16" />
		<circle class="st1" cx="864" cy="768" r="16" />
		<path class="st1" d="M944,768c0,8.84,7.16,16,16,16v-16v-16C951.16,752,944,759.16,944,768z" />
		<circle class="st1" cx="48" cy="816" r="16" />
		<path class="st1" d="M0,848v16v16c8.84,0,16-7.16,16-16S8.84,848,0,848z" />
		<circle class="st1" cx="144" cy="816" r="16" />
		<circle class="st1" cx="96" cy="864" r="16" />
		<circle class="st1" cx="240" cy="816" r="16" />
		<circle class="st1" cx="192" cy="864" r="16" />
		<circle class="st1" cx="336" cy="816" r="16" />
		<circle class="st1" cx="288" cy="864" r="16" />
		<circle class="st1" cx="432" cy="816" r="16" />
		<circle class="st1" cx="384" cy="864" r="16" />
		<circle class="st1" cx="528" cy="816" r="16" />
		<circle class="st1" cx="480" cy="864" r="16" />
		<circle class="st1" cx="624" cy="816" r="16" />
		<circle class="st1" cx="576" cy="864" r="16" />
		<circle class="st1" cx="720" cy="816" r="16" />
		<circle class="st1" cx="672" cy="864" r="16" />
		<circle class="st1" cx="816" cy="816" r="16" />
		<circle class="st1" cx="768" cy="864" r="16" />
		<circle class="st1" cx="912" cy="816" r="16" />
		<circle class="st1" cx="864" cy="864" r="16" />
		<path class="st1" d="M944,864c0,8.84,7.16,16,16,16v-16v-16C951.16,848,944,855.16,944,864z" />
		<circle class="st1" cx="48" cy="912" r="16" />
		<path class="st1" d="M0,944v16h16C16,951.16,8.84,944,0,944z" />
		<circle class="st1" cx="144" cy="912" r="16" />
		<path class="st1" d="M96,944c-8.84,0-16,7.16-16,16h16h16C112,951.16,104.84,944,96,944z" />
		<circle class="st1" cx="240" cy="912" r="16" />
		<path class="st1" d="M192,944c-8.84,0-16,7.16-16,16h16h16C208,951.16,200.84,944,192,944z" />
		<circle class="st1" cx="336" cy="912" r="16" />
		<path class="st1" d="M288,944c-8.84,0-16,7.16-16,16h16h16C304,951.16,296.84,944,288,944z" />
		<circle class="st1" cx="432" cy="912" r="16" />
		<path class="st1" d="M384,944c-8.84,0-16,7.16-16,16h16h16C400,951.16,392.84,944,384,944z" />
		<circle class="st1" cx="528" cy="912" r="16" />
		<path class="st1" d="M480,944c-8.84,0-16,7.16-16,16h16h16C496,951.16,488.84,944,480,944z" />
		<circle class="st1" cx="624" cy="912" r="16" />
		<path class="st1" d="M576,944c-8.84,0-16,7.16-16,16h16h16C592,951.16,584.84,944,576,944z" />
		<circle class="st1" cx="720" cy="912" r="16" />
		<path class="st1" d="M672,944c-8.84,0-16,7.16-16,16h16h16C688,951.16,680.84,944,672,944z" />
		<circle class="st1" cx="816" cy="912" r="16" />
		<path class="st1" d="M768,944c-8.84,0-16,7.16-16,16h16h16C784,951.16,776.84,944,768,944z" />
		<circle class="st1" cx="912" cy="912" r="16" />
		<path class="st1" d="M864,944c-8.84,0-16,7.16-16,16h16h16C880,951.16,872.84,944,864,944z" />
		<path class="st1" d="M944,960h16v-16C951.16,944,944,951.16,944,960z" />
	</g>
</g>
<g>
	<rect x="650.04" y="889.44" width="309.96" height="70.56" />
	<g>
		<path class="st2" d="M687.61,919.74l2.9,7.36l0.63,2.42h0.05l0.48-2.47l2.24-7.31h1.92l-4.23,12.88h-0.98l-3.3-8.32l-0.48-2.07    h-0.07l-0.5,2.09l-3.18,8.29h-0.98l-4.38-12.88h2.2l2.49,7.34l0.43,2.45h0.03l0.6-2.49l2.7-7.28L687.61,919.74L687.61,919.74z" />
		<path class="st2" d="M706.14,919.74l2.9,7.36l0.63,2.42h0.05l0.48-2.47l2.24-7.31h1.92l-4.23,12.88h-0.98l-3.3-8.32l-0.48-2.07    h-0.07l-0.5,2.09l-3.18,8.29h-0.98l-4.38-12.88h2.2l2.49,7.34l0.43,2.45h0.03l0.6-2.49l2.7-7.28L706.14,919.74L706.14,919.74z" />
		<path class="st2" d="M724.66,919.74l2.9,7.36l0.63,2.42h0.05l0.48-2.47l2.24-7.31h1.92l-4.23,12.88h-0.98l-3.3-8.32l-0.48-2.07    h-0.07l-0.5,2.09l-3.18,8.29h-0.98l-4.38-12.88h2.2l2.49,7.34l0.43,2.45h0.03l0.6-2.49l2.7-7.28L724.66,919.74L724.66,919.74z" />
		<path class="st2" d="M732.75,931.18c0-0.45,0.13-0.81,0.39-1.07c0.26-0.26,0.6-0.39,1.04-0.39c0.45,0,0.82,0.13,1.08,0.39    c0.26,0.26,0.41,0.62,0.41,1.07c0,0.44-0.14,0.79-0.41,1.06c-0.26,0.26-0.63,0.41-1.08,0.41c-0.44,0-0.78-0.14-1.04-0.41    C732.88,931.97,732.75,931.62,732.75,931.18z" />
		<path class="st2" d="M747.01,927.86c0-0.7-0.22-1.29-0.63-1.73c-0.41-0.44-0.95-0.85-1.58-1.19c-0.63-0.34-1.31-0.67-2.05-0.97    c-0.75-0.31-1.42-0.67-2.05-1.1s-1.16-0.95-1.58-1.58c-0.41-0.63-0.63-1.44-0.63-2.4c0-1.38,0.48-2.47,1.44-3.28    c0.95-0.81,2.32-1.21,4.09-1.21c1.02,0,1.95,0.07,2.8,0.23c0.85,0.15,1.5,0.34,1.96,0.58l-0.63,1.86    c-0.39-0.19-0.95-0.37-1.7-0.54c-0.75-0.18-1.58-0.26-2.53-0.26c-1.11,0-1.94,0.25-2.49,0.75c-0.56,0.49-0.83,1.08-0.83,1.76    c0,0.66,0.22,1.21,0.63,1.64c0.41,0.44,0.94,0.83,1.57,1.17c0.63,0.34,1.31,0.68,2.05,1.02c0.75,0.34,1.42,0.73,2.05,1.17    s1.16,0.98,1.58,1.6c0.41,0.62,0.63,1.4,0.63,2.32c0,0.76-0.14,1.44-0.41,2.04c-0.26,0.6-0.67,1.12-1.19,1.57    c-0.51,0.44-1.14,0.77-1.89,1.01c-0.75,0.24-1.58,0.35-2.52,0.35c-1.26,0-2.3-0.1-3.12-0.29s-1.46-0.41-1.92-0.64l0.7-1.86    c0.39,0.22,0.95,0.41,1.71,0.63c0.76,0.2,1.6,0.31,2.55,0.31c0.56,0,1.07-0.05,1.57-0.16c0.49-0.12,0.91-0.29,1.26-0.53    s0.63-0.56,0.85-0.92C746.91,928.81,747.01,928.36,747.01,927.86z" />
		<path class="st2" d="M760.32,932.34v-7.18c0-0.66-0.04-1.23-0.12-1.73c-0.07-0.49-0.22-0.91-0.41-1.23    c-0.2-0.32-0.48-0.58-0.82-0.75c-0.34-0.17-0.79-0.25-1.35-0.25c-0.79,0-1.5,0.25-2.14,0.77c-0.64,0.51-1.04,1.17-1.23,1.98v8.39    h-2.02v-17.64h2.02v6.45h0.1c0.44-0.51,0.95-0.94,1.58-1.25c0.62-0.32,1.38-0.47,2.28-0.47c0.7,0,1.32,0.07,1.84,0.24    c0.51,0.16,0.95,0.44,1.3,0.85c0.34,0.4,0.59,0.94,0.76,1.63c0.16,0.68,0.24,1.54,0.24,2.58v7.61H760.32L760.32,932.34z" />
		<path class="st2" d="M765.81,920.68c0.64-0.39,1.39-0.67,2.23-0.86c0.85-0.19,1.74-0.28,2.66-0.28c0.87,0,1.58,0.12,2.11,0.35    c0.53,0.24,0.94,0.54,1.21,0.92c0.28,0.38,0.47,0.79,0.56,1.25c0.09,0.46,0.14,0.91,0.14,1.36c0,1.01-0.03,1.99-0.07,2.95    c-0.05,0.95-0.07,1.86-0.07,2.72c0,0.62,0.03,1.21,0.07,1.76c0.05,0.56,0.14,1.07,0.28,1.54h-1.48l-0.53-1.76h-0.13    c-0.15,0.24-0.34,0.47-0.57,0.69c-0.22,0.23-0.5,0.43-0.82,0.6c-0.32,0.18-0.69,0.32-1.11,0.44c-0.41,0.12-0.89,0.18-1.44,0.18    c-0.55,0-1.04-0.09-1.5-0.25s-0.86-0.41-1.2-0.72c-0.34-0.32-0.6-0.68-0.79-1.12c-0.19-0.44-0.29-0.94-0.29-1.49    c0-0.75,0.15-1.36,0.45-1.85c0.31-0.49,0.73-0.89,1.27-1.19c0.54-0.29,1.2-0.5,1.96-0.63c0.76-0.13,1.61-0.19,2.53-0.19    c0.24,0,0.47,0,0.69,0c0.23,0,0.45,0.01,0.69,0.05c0.05-0.5,0.07-0.95,0.07-1.36c0-0.92-0.19-1.57-0.56-1.94    c-0.37-0.37-1.04-0.56-2.02-0.56c-0.29,0-0.59,0.03-0.92,0.06c-0.32,0.05-0.67,0.1-1.01,0.18c-0.34,0.07-0.67,0.18-0.98,0.29    c-0.32,0.12-0.58,0.24-0.82,0.38L765.81,920.68z M769.39,930.78c0.47,0,0.89-0.06,1.26-0.19c0.37-0.13,0.69-0.29,0.95-0.48    s0.49-0.4,0.67-0.64c0.18-0.24,0.31-0.47,0.39-0.68v-2.09c-0.24-0.01-0.48-0.03-0.72-0.04c-0.24-0.01-0.48-0.01-0.72-0.01    c-0.51,0-1.04,0.03-1.52,0.09c-0.49,0.06-0.94,0.16-1.31,0.32s-0.68,0.38-0.91,0.66c-0.23,0.28-0.34,0.63-0.34,1.04    c0,0.59,0.22,1.07,0.63,1.45C768.19,930.59,768.73,930.78,769.39,930.78z" />
		<path class="st2" d="M778.51,919.74h1.39l0.38,1.51h0.1c0.39-0.59,0.88-1.04,1.5-1.35c0.62-0.32,1.31-0.47,2.11-0.47    c1.67,0,2.93,0.49,3.75,1.48c0.82,0.99,1.23,2.61,1.23,4.86c0,1.06-0.14,2.02-0.41,2.86s-0.67,1.57-1.17,2.15    c-0.5,0.59-1.11,1.04-1.83,1.36c-0.72,0.32-1.51,0.48-2.39,0.48c-0.62,0-1.11-0.04-1.48-0.12c-0.37-0.07-0.76-0.2-1.17-0.39v5.24    h-2.02L778.51,919.74L778.51,919.74z M783.6,921.2c-0.85,0-1.54,0.23-2.02,0.67c-0.49,0.44-0.85,1.12-1.04,2.03v6.25    c0.31,0.24,0.64,0.41,1.04,0.54c0.39,0.13,0.89,0.19,1.54,0.19c1.16,0,2.08-0.43,2.76-1.3c0.68-0.87,1.02-2.14,1.02-3.82    c0-0.69-0.06-1.31-0.18-1.88c-0.12-0.57-0.31-1.04-0.57-1.44c-0.26-0.39-0.59-0.7-1.01-0.92    C784.71,921.32,784.2,921.2,783.6,921.2z" />
		<path class="st2" d="M801.34,931.34c-0.5,0.41-1.13,0.72-1.9,0.95c-0.77,0.24-1.58,0.35-2.43,0.35c-0.95,0-1.79-0.15-2.49-0.47    c-0.7-0.31-1.29-0.76-1.74-1.33c-0.45-0.58-0.79-1.27-1.01-2.08c-0.22-0.81-0.32-1.71-0.32-2.72c0-2.15,0.48-3.79,1.44-4.91    c0.95-1.12,2.33-1.69,4.1-1.69c0.57,0,1.14,0.06,1.71,0.19c0.57,0.13,1.08,0.37,1.54,0.72c0.45,0.35,0.82,0.85,1.11,1.5    c0.29,0.64,0.43,1.5,0.43,2.56c0,0.56-0.05,1.17-0.15,1.84h-8.09c0,0.75,0.07,1.4,0.23,1.96c0.15,0.58,0.39,1.06,0.7,1.45    c0.31,0.39,0.73,0.69,1.25,0.91c0.51,0.22,1.13,0.32,1.88,0.32c0.57,0,1.14-0.1,1.71-0.31c0.57-0.2,1-0.44,1.29-0.7L801.34,931.34    z M797.01,921.2c-1,0-1.79,0.26-2.39,0.78s-0.95,1.41-1.07,2.67h6.25c0-1.27-0.24-2.17-0.73-2.68    C798.59,921.45,797.9,921.2,797.01,921.2z" />
		<path class="st2" d="M810.49,928.91c0-0.5-0.15-0.89-0.45-1.19c-0.31-0.29-0.68-0.53-1.12-0.72c-0.44-0.19-0.94-0.38-1.46-0.56    c-0.53-0.18-1.02-0.4-1.46-0.68c-0.44-0.28-0.82-0.63-1.12-1.07c-0.31-0.44-0.45-1.02-0.45-1.76c0-1.21,0.34-2.09,1.04-2.66    c0.69-0.57,1.65-0.85,2.87-0.85c0.91,0,1.66,0.07,2.28,0.24c0.62,0.16,1.14,0.35,1.6,0.57l-0.48,1.66    c-0.39-0.19-0.86-0.35-1.4-0.49s-1.13-0.22-1.76-0.22c-0.75,0-1.29,0.13-1.63,0.38c-0.34,0.25-0.51,0.69-0.51,1.31    c0,0.44,0.15,0.78,0.45,1.02c0.31,0.25,0.68,0.47,1.12,0.66c0.44,0.19,0.94,0.38,1.46,0.57c0.53,0.19,1.02,0.43,1.46,0.73    c0.44,0.31,0.82,0.68,1.12,1.14c0.31,0.47,0.45,1.07,0.45,1.83c0,0.54-0.09,1.04-0.26,1.51c-0.18,0.47-0.45,0.87-0.82,1.21    s-0.83,0.6-1.38,0.79c-0.55,0.19-1.19,0.29-1.93,0.29c-0.95,0-1.77-0.09-2.45-0.28c-0.67-0.19-1.23-0.41-1.69-0.66l0.6-1.71    c0.39,0.22,0.89,0.41,1.51,0.6c0.62,0.19,1.25,0.28,1.89,0.28c0.72,0,1.32-0.14,1.79-0.43    C810.25,930.16,810.49,929.66,810.49,928.91z" />
		<path class="st2" d="M826.82,926.92h-2.97v5.42h-1.96v-5.42h-7.76v-0.83l8.37-11.66h1.36v10.74h2.97L826.82,926.92L826.82,926.92z     M821.88,919.67l0.25-2.07h-0.07l-0.88,1.71l-3.55,4.82l-1.21,1.23l1.76-0.2h3.71L821.88,919.67L821.88,919.67z" />
		<path class="st2" d="M829.49,914.7h9.6v1.86h-7.51v6.02h7v1.86h-7v7.88h-2.09L829.49,914.7L829.49,914.7z" />
		<path class="st2" d="M842.51,914.88c0.64-0.12,1.38-0.22,2.21-0.28c0.83-0.06,1.58-0.1,2.28-0.1c0.77,0,1.51,0.09,2.21,0.25    c0.69,0.16,1.31,0.44,1.84,0.83c0.53,0.39,0.95,0.89,1.27,1.51c0.31,0.62,0.48,1.38,0.48,2.27c0,1.38-0.38,2.49-1.13,3.35    s-1.71,1.42-2.87,1.71l1.21,0.94l4.38,6.98h-2.45l-4.86-7.61l-2.47-0.38v7.99h-2.09L842.51,914.88L842.51,914.88z M847.05,916.31    c-0.22,0-0.44,0-0.68,0c-0.24,0-0.47,0.01-0.68,0.03c-0.22,0.02-0.43,0.04-0.62,0.05c-0.19,0.01-0.35,0.04-0.47,0.07v6.5h1.96    c1.16,0,2.11-0.29,2.87-0.85c0.76-0.57,1.13-1.46,1.13-2.67c0-0.91-0.31-1.65-0.94-2.24C849.03,916.6,848.17,916.31,847.05,916.31    z" />
		<path class="st2" d="M857.51,914.7h9.6v1.86h-7.51v5.77h6.88v1.86h-6.88v6.27h7.63v1.86h-9.73L857.51,914.7L857.51,914.7z" />
		<path class="st2" d="M871.02,914.7h9.6v1.86h-7.51v5.77h6.88v1.86h-6.88v6.27h7.63v1.86h-9.73L871.02,914.7L871.02,914.7z" />
		<path class="st2" d="M883.62,931.18c0-0.45,0.13-0.81,0.39-1.07c0.26-0.26,0.6-0.39,1.04-0.39c0.45,0,0.82,0.13,1.08,0.39    c0.26,0.26,0.41,0.62,0.41,1.07c0,0.44-0.14,0.79-0.41,1.06c-0.26,0.26-0.63,0.41-1.08,0.41c-0.44,0-0.78-0.14-1.04-0.41    C883.74,931.97,883.62,931.62,883.62,931.18z" />
		<path class="st2" d="M898.31,931.51c-0.5,0.37-1.1,0.66-1.79,0.85c-0.69,0.19-1.41,0.29-2.17,0.29c-0.97,0-1.8-0.15-2.47-0.47    s-1.22-0.76-1.65-1.33c-0.43-0.58-0.75-1.27-0.94-2.09c-0.19-0.82-0.29-1.71-0.29-2.71c0-2.13,0.47-3.77,1.41-4.91    c0.95-1.13,2.29-1.7,4.06-1.7c0.81,0,1.49,0.06,2.05,0.19c0.57,0.13,1.07,0.31,1.52,0.54l-0.58,1.74    c-0.39-0.22-0.82-0.39-1.29-0.51c-0.47-0.13-0.97-0.19-1.51-0.19c-2.39,0-3.58,1.61-3.58,4.84c0,0.64,0.06,1.25,0.19,1.83    c0.13,0.58,0.34,1.1,0.63,1.54c0.29,0.44,0.68,0.81,1.16,1.07s1.07,0.41,1.77,0.41c0.6,0,1.14-0.09,1.63-0.28    c0.48-0.19,0.87-0.39,1.17-0.63L898.31,931.51z" />
		<path class="st2" d="M899.8,926.04c0-2.13,0.48-3.77,1.42-4.91s2.32-1.7,4.09-1.7c0.95,0,1.76,0.15,2.46,0.47    c0.69,0.31,1.27,0.76,1.73,1.33c0.45,0.58,0.79,1.27,1.01,2.09c0.22,0.82,0.32,1.71,0.32,2.71c0,2.13-0.48,3.77-1.42,4.91    c-0.95,1.13-2.32,1.7-4.1,1.7c-0.94,0-1.76-0.15-2.46-0.47c-0.69-0.31-1.27-0.76-1.73-1.33c-0.45-0.58-0.79-1.27-1.01-2.09    S899.8,927.04,899.8,926.04z M901.89,926.04c0,0.64,0.06,1.25,0.19,1.84c0.13,0.59,0.32,1.1,0.59,1.54    c0.27,0.44,0.62,0.79,1.06,1.06c0.44,0.26,0.97,0.41,1.58,0.41c2.28,0.01,3.43-1.6,3.43-4.84c0-0.66-0.06-1.27-0.19-1.86    c-0.13-0.59-0.32-1.1-0.59-1.54c-0.26-0.44-0.62-0.78-1.06-1.04c-0.44-0.26-0.97-0.39-1.58-0.39    C903.04,921.19,901.89,922.8,901.89,926.04z" />
		<path class="st2" d="M921.39,932.34v-7.13c0-0.67-0.03-1.26-0.09-1.76s-0.18-0.91-0.34-1.25c-0.16-0.34-0.41-0.59-0.72-0.76    c-0.32-0.16-0.72-0.25-1.22-0.25c-0.77,0-1.41,0.24-1.93,0.7c-0.51,0.48-0.87,1.06-1.07,1.76v8.67H914v-12.6h1.41l0.38,1.54h0.11    c0.45-0.54,0.98-0.98,1.57-1.32c0.59-0.34,1.38-0.51,2.33-0.51c0.81,0,1.46,0.15,1.98,0.47c0.51,0.31,0.91,0.85,1.2,1.63    c0.39-0.66,0.92-1.17,1.6-1.54s1.45-0.56,2.3-0.56c0.7,0,1.3,0.07,1.79,0.24c0.49,0.16,0.89,0.44,1.21,0.85    c0.31,0.41,0.56,0.95,0.69,1.64c0.14,0.69,0.22,1.57,0.22,2.62v7.56h-2.02v-7.59c0-0.6-0.03-1.13-0.09-1.58    c-0.06-0.44-0.18-0.82-0.35-1.11c-0.17-0.29-0.41-0.51-0.73-0.66c-0.32-0.14-0.72-0.22-1.22-0.22c-0.85,0-1.5,0.24-1.96,0.7    c-0.47,0.48-0.81,1.14-1.01,2.02v8.41L921.39,932.34L921.39,932.34z" />
	</g>
</g>
</svg>